<svg width="23" height="25" viewBox="0 0 23 25" fill="none" xmlns="http://www.w3.org/2000/svg">
<path fill-rule="evenodd" clip-rule="evenodd" d="M22.5246 18.3875L22.8737 19.8125C23.2045 21.0445 22.8779 22.3391 21.9831 23.3427C21.0883 24.3463 19.7188 24.9541 18.2486 25H4.75141C3.28122 24.9541 1.91171 24.3463 1.01691 23.3427C0.122112 22.3391 -0.204496 21.0445 0.126293 19.8125L0.475358 18.3875C0.876834 16.4585 2.80627 15.0409 5.08593 15H17.9141C20.1937 15.0409 22.1232 16.4585 22.5246 18.3875ZM18.2486 23.1125C18.9871 23.1051 19.6822 22.8111 20.1394 22.3125V22.325C20.7003 21.7202 20.9189 20.9322 20.7357 20.175L20.3866 18.75C20.1929 17.694 19.1571 16.9032 17.9141 16.8625H5.08593C3.84292 16.9032 2.80706 17.694 2.61339 18.75L2.26432 20.175C2.08565 20.9282 2.30397 21.7108 2.86064 22.3125C3.31782 22.8111 4.01286 23.1051 4.75141 23.1125H18.2486Z" fill="white"/>
<path fill-rule="evenodd" clip-rule="evenodd" d="M12.2272 12.5H10.7728C7.5597 12.5 4.95501 10.2614 4.95501 7.50001V4.20001C4.95113 3.08509 5.46475 2.01486 6.38207 1.22649C7.29938 0.438113 8.54464 -0.0033144 9.84192 1.87396e-05H13.158C14.4553 -0.0033144 15.7006 0.438113 16.6179 1.22649C17.5352 2.01486 18.0488 3.08509 18.045 4.20001V7.50001C18.045 10.2614 15.4403 12.5 12.2272 12.5ZM9.84192 1.87502C8.34785 1.87502 7.13666 2.91595 7.13666 4.20001V7.50001C7.13666 9.22589 8.7646 10.625 10.7728 10.625H12.2272C14.2354 10.625 15.8633 9.22589 15.8633 7.50001V4.20001C15.8633 3.58339 15.5783 2.99201 15.0709 2.55599C14.5636 2.11997 13.8755 1.87502 13.158 1.87502H9.84192Z" fill="white"/>
</svg>
