<svg width="25" height="27" viewBox="0 0 25 27" fill="none" xmlns="http://www.w3.org/2000/svg">
<path d="M8.00105 12.1111V5.16667C8.00105 4.0616 8.47497 3.00179 9.31854 2.22039C10.1621 1.43899 11.3063 1 12.4993 1C13.6922 1 14.8364 1.43899 15.68 2.22039C16.5235 3.00179 16.9974 4.0616 16.9974 5.16667V12.1111M3.99916 7.94444H21.0008C21.4332 7.9444 21.8605 8.03096 22.2534 8.19819C22.6463 8.36543 22.9955 8.60939 23.277 8.91334C23.5586 9.21729 23.7659 9.57404 23.8846 9.95915C24.0034 10.3442 24.0309 10.7486 23.9652 11.1444L22.0834 22.4667C21.9201 23.4506 21.3818 24.3479 20.566 24.996C19.7502 25.6441 18.7109 26.0003 17.6362 26H7.36231C6.28784 26 5.24888 25.6436 4.43343 24.9955C3.61798 24.3475 3.07991 23.4504 2.91659 22.4667L1.03484 11.1444C0.969123 10.7486 0.996593 10.3442 1.11537 9.95915C1.23415 9.57404 1.44142 9.21729 1.72299 8.91334C2.00455 8.60939 2.35374 8.36543 2.74662 8.19819C3.1395 8.03096 3.56678 7.9444 3.99916 7.94444Z" stroke="white" stroke-width="2" stroke-linecap="round" stroke-linejoin="round"/>
</svg>
