<svg width="30" height="30" viewBox="0 0 30 30" fill="none" xmlns="http://www.w3.org/2000/svg">
<path d="M17.8715 14.7656C17.4027 14.5894 17.4027 13.9162 17.3736 13.4475C17.2565 11.7778 17.8424 9.22874 17.1393 8.14499C16.6415 7.49999 14.2386 7.55906 12.7743 7.64718C12.3636 7.70624 11.8658 7.79343 11.5143 7.96968C11.1627 8.14593 10.8111 8.43843 10.8111 8.70187C10.8111 9.08249 11.6905 9.02437 12.0121 9.52218C12.3636 10.05 12.3636 11.1919 12.3636 12.1294C12.3636 13.2131 12.1874 14.6494 11.7486 14.7075C11.0746 14.7366 10.694 14.0625 10.3424 13.5647C9.63927 12.5981 8.93614 11.3962 8.40833 10.2244C8.14489 9.60937 7.9977 8.93531 7.61708 8.67187C7.03114 8.26124 5.97645 8.23218 4.95083 8.26125C4.01333 8.29031 2.6652 8.17312 2.40177 8.73C2.19645 9.345 2.63614 9.93093 2.87052 10.4297C4.07145 13.0369 5.36052 15.3225 6.94302 17.49C8.40833 19.5112 9.78458 21.1228 12.4799 21.9722C13.2421 22.2066 16.5815 22.8806 17.2555 21.9722C17.4899 21.6206 17.4318 20.8294 17.549 20.2434C17.6661 19.6575 17.8124 19.0716 18.3693 19.0425C18.838 19.0134 19.1015 19.4231 19.3949 19.7166C19.7174 20.0391 19.9808 20.3025 20.2152 20.5959C20.7721 21.1528 21.358 21.9141 22.0611 22.2075C23.0277 22.6181 24.5221 22.5009 25.9283 22.4419C27.0711 22.4128 27.8915 22.1784 27.9796 21.5044C28.0386 20.9766 27.4518 20.2153 27.1002 19.7756C26.2208 18.6919 25.8111 18.3694 24.8146 17.3728C24.3749 16.9331 23.818 16.4644 23.818 15.9375C23.789 15.615 24.0524 15.3225 24.2868 15C25.3124 13.4766 26.338 12.3928 27.2755 10.8103C27.539 10.3416 28.1549 9.25781 27.9205 8.73C27.6571 8.14406 26.1918 8.31937 25.2833 8.31937C24.1115 8.31937 22.588 8.23124 22.2946 8.46562C21.7377 8.84624 21.5033 9.46218 21.2399 10.0481C20.654 11.3962 19.8627 12.7725 19.0424 13.7981C18.749 14.1497 18.193 14.8819 17.8705 14.7647L17.8715 14.7656Z" fill="white"/>
</svg>
