<svg width="35" height="35" viewBox="0 0 35 35" fill="none" xmlns="http://www.w3.org/2000/svg">
<path fill-rule="evenodd" clip-rule="evenodd" d="M2.4603 2.45005C0 4.9001 0 8.84337 0 16.73V18.1242C0 26.0108 0 29.954 2.4603 32.4041C4.92061 34.8542 8.88038 34.8542 16.8 34.8542H18.2C26.1196 34.8542 30.0794 34.8542 32.5397 32.4041C35 29.954 35 26.0108 35 18.1242V16.73C35 8.84337 35 4.9001 32.5397 2.45005C30.0794 0 26.1196 0 18.2 0H16.8C8.88038 0 4.92061 0 2.4603 2.45005ZM5.90634 10.6015C6.09592 19.6636 10.6459 25.1096 18.623 25.1096H19.0751V19.925C22.0064 20.2155 24.2229 22.3503 25.1125 25.1096H29.2542C28.1167 20.9852 25.127 18.7051 23.2603 17.8338C25.127 16.7591 27.752 14.1451 28.3791 10.6015H24.6165C23.7999 13.477 21.3793 16.0911 19.0751 16.338V10.6015H15.3125V20.6512C12.9792 20.0703 10.0334 17.2529 9.90216 10.6015H5.90634Z" fill="white"/>
</svg>
