<svg width="177" height="324" viewBox="0 0 177 324" fill="none" xmlns="http://www.w3.org/2000/svg">
<path d="M13.3621 17.8715C13.6665 15.4363 18.4894 13.8446 20.3412 13.0923C40.2276 5.01345 65.8059 6.25793 86.7945 4.9753C124.281 2.68443 161.605 2.85123 199.143 2.85123C220.561 2.85123 241.978 2.85123 263.396 2.85123C266.165 2.85123 275.711 1.18384 276.823 4.52014C280.304 14.9609 279.433 26.9546 279.706 37.7468C280.87 83.7135 285.442 131.104 281.678 177.025C278.489 215.938 272.158 253.302 259.831 290.284C258.8 293.377 258.001 303.84 255.052 305.684C253.246 306.812 252.298 308.911 250.652 310.387C242.381 317.802 225.035 320.008 214.542 320.704C175.892 323.266 135.702 321.643 97.2631 317.214C82.3661 315.498 67.6126 315.672 52.6575 315.546C43.283 315.466 29.9597 315.941 21.0998 312.511C18.4762 311.496 18.9516 288.456 18.5206 285.808C14.8518 263.271 6.41342 241.754 3.34863 219.052C0.948261 201.271 2.43831 182.644 2.43831 164.736C2.43831 147.592 2.43831 130.447 2.43831 113.303C2.43831 94.8064 4.74408 75.3179 8.5071 57.1669C10.7783 46.2116 9.86334 33.8298 13.3621 23.3334" stroke="black" stroke-width="3" stroke-linecap="round"/>
</svg>
