<svg width="260" height="312" viewBox="0 0 260 312" fill="none" xmlns="http://www.w3.org/2000/svg">
<path d="M16.3556 2C16.3556 7.47392 22.4397 8.0943 26.8728 8.79426C45.3701 11.7149 63.8874 12.4418 82.4368 15.0301C114.375 19.4866 146.461 20.372 178.115 27.1294C193.296 30.3703 206.785 34.6832 222.417 35.5059C225.132 35.6488 238.261 37.9847 238.984 39.9734C242.262 48.9893 240.742 61.1665 242.521 70.6871C251.113 116.679 273.792 158.973 268.953 206.758C266.334 232.625 255.923 255.792 255.923 281.774C255.923 295.314 223.689 288.354 215.344 288.476C193.527 288.794 170.879 292.012 149.635 296.852C130.398 301.235 111.393 301.918 92.1163 305.229C84.0972 306.606 76.6414 310.254 68.476 310.254C61.9609 310.254 55.4459 310.254 48.9309 310.254C41.8652 310.254 34.3066 311.045 27.5243 308.579C25.2331 307.746 26.6108 301.845 26.0351 299.83C20.1746 279.318 7.55936 258.553 5.00087 237.658C0.304823 199.307 0.990202 162.903 7.97917 124.669C15.1553 85.4111 19.7062 45.2472 19.7062 5.35059" stroke="black" stroke-width="3" stroke-linecap="round"/>
</svg>
