<svg width="282" height="250" viewBox="0 0 282 250" fill="none" xmlns="http://www.w3.org/2000/svg">
<path d="M11.8047 14.9341C20.6759 14.9341 29.8393 13.7166 38.6094 12.5142C60.067 9.57247 81.1332 8.23292 102.829 8.23292C134.002 8.23292 165.111 7.79144 196.087 4.9754C203.837 4.27088 210.308 8.23292 217.866 8.23292C222.758 8.23292 228.278 7.40408 232.944 9.07057C236.947 10.5002 240.4 13.034 244.671 13.2588C246.689 13.365 254.845 14.1261 256.026 15.3064C257.127 16.4083 256.378 20.7535 256.398 22.0076C256.517 29.6551 257.799 36.8698 259.748 44.2518C262.364 54.1545 267.848 65.9345 268.125 76.1755C268.378 85.5545 269.072 95.2242 270.731 104.469C277.068 139.773 279.211 177.468 279.852 213.364C279.948 218.761 282.719 234.598 275.664 236.166C255.67 240.609 237.725 245.186 216.284 244.264C188.692 243.077 161.68 240.012 134.008 242.03C116.046 243.34 98.1505 246.125 80.1195 246.125C66.9256 246.125 53.9244 247.8 40.657 247.8C31.0369 247.8 14.099 245.285 8.45407 236.818C-2.44631 220.467 3.34973 194.732 5.19655 176.879C9.60493 134.265 16.0912 90.9491 16.8306 48.0677C17.1013 32.3661 20.1811 17.291 20.1811 1.53174" stroke="black" stroke-width="3" stroke-linecap="round"/>
</svg>
