<svg width="237" height="300" viewBox="0 0 237 300" fill="none" xmlns="http://www.w3.org/2000/svg">
<path d="M2 23.7788C42.8426 23.7788 84.1711 23.3227 125.227 23.7788C153.932 24.0978 179.025 37.5019 206.293 44.72C221.979 48.8722 225.153 53.6116 229.096 69.3841C232.842 84.3702 235.29 98.6334 234.773 114.152C234.159 132.577 227.967 149.698 226.117 167.854C224.523 183.512 221.464 198.678 221.464 214.39C221.464 224.885 223.762 238.328 220.626 248.362C218.689 254.56 221.071 261.159 219.695 267.348C218.205 274.053 215.424 273.922 208.899 276.097C158.265 292.975 103.97 296.852 50.5836 296.852C43.8449 296.852 19.1987 301.579 12.4241 294.805C10.5042 292.885 12.0197 283.37 12.0518 281.03C12.3673 257.997 14.1623 235.76 11.9587 212.622C6.54284 155.755 5.65727 98.4332 3.58222 41.3695C3.10334 28.2 2 15.2008 2 2" stroke="black" stroke-width="3" stroke-linecap="round"/>
</svg>
