<svg width="266" height="311" viewBox="0 0 266 311" fill="none" xmlns="http://www.w3.org/2000/svg">
<path d="M10.6501 1.70124C42.8939 1.70124 76.7215 1.38729 108.841 4.30726C125.951 5.86267 143.661 5.71639 160.496 9.24007C167.015 10.6045 173.978 12.8608 180.6 13.4283C185.977 13.8893 195.611 20.4115 199.959 23.5732C211.399 31.8931 224.686 39.9002 239.049 41.8153C244.879 42.5926 251.679 42.0378 251.893 48.2372C252.214 57.5581 255.156 68.0189 256.919 77.1826C259.991 93.1573 261.873 110.762 263.247 126.976C265.933 158.669 260.382 189.812 256.174 221.072C254.077 236.649 254.56 253.268 253.475 269.004C252.821 278.492 253.95 290.648 251.893 299.904C250.536 306.01 178.358 300.929 167.29 302.51C130.908 307.707 90.953 312.473 54.2078 306.233C46.7878 304.973 37.6591 304.569 31.4982 300.648C17.4084 291.682 17.8994 262.095 16.6067 247.691C10.9306 184.443 2.27362 122.358 2.27362 58.6613C2.27362 40.0173 1.96306 21.6823 5.62422 3.37654" stroke="black" stroke-width="3" stroke-linecap="round"/>
</svg>
