<svg width="280" height="310" viewBox="0 0 280 310" fill="none" xmlns="http://www.w3.org/2000/svg">
<path d="M14.8204 27.8918C19.7552 15.0614 38.08 14.566 49.5642 12.8716C89.5406 6.97344 129.593 4.47382 169.878 2.25121C187.233 1.29369 205.121 1.31776 222.449 2.63051C231.579 3.32218 240.614 6.0442 249.682 6.0442C255.074 6.0442 260.025 6.37291 265.31 7.33382C270.655 8.30569 270.761 6.21444 271.834 12.113C273.939 23.695 277.636 34.2355 278.282 46.1741C279.067 60.702 277.264 74.9282 275.93 89.3383C273.358 117.12 271.53 144.133 271.53 172.026C271.53 199.857 271.663 227.592 270.165 255.32C269.968 258.958 267.434 261.515 267.434 265.485C267.434 268.37 266.406 272.603 265.765 275.65C264.435 281.965 264.703 288.263 264.703 294.691C264.703 299.65 240.814 299.677 237.393 299.925C195.224 302.986 154.429 310.703 111.769 306.753C90.0195 304.739 68.375 305.084 46.5298 305.084C36.2705 305.084 25.2399 306.282 15.048 305.008C12.1539 304.646 5.6265 304.659 3.13799 303.415C1.11175 302.402 2.53111 290.923 2.53111 289.381C2.53111 275.088 4.07326 260.493 4.95863 246.216C7.29505 208.542 12.0895 170.495 12.0895 132.73C12.0895 99.1394 13.4549 65.6064 13.4549 31.9883" stroke="black" stroke-width="3" stroke-linecap="round"/>
</svg>
