<svg width="258" height="310" viewBox="0 0 258 310" fill="none" xmlns="http://www.w3.org/2000/svg">
<path d="M12.913 27.6228C13.9417 24.8795 25.2098 23.3102 28.0091 22.8436C39.7006 20.895 50.6047 16.3837 62.2219 14.2715C86.9168 9.78146 111.997 7.57602 136.792 3.80279C144.225 2.67176 152.405 1.581 159.929 1.67871C188.953 2.05564 217.096 12.6025 246.41 12.6025C251.603 12.6025 255.968 10.7623 255.968 16.9265C255.968 40.4431 255.968 63.9597 255.968 87.4762C255.968 113.951 255.968 140.426 255.968 166.901C255.968 186.552 256.493 205.47 252.63 224.783C248.987 242.998 245.044 262.693 245.044 281.298C245.044 285.383 244.727 288.602 242.996 292.45C237.724 304.164 222.618 300.097 211.818 303.449C204.284 305.787 196.088 304.879 188.149 306.18C175.617 308.235 162.807 307.546 150.143 307.546C115.555 307.546 81.424 306.916 47.7326 299.429C41.9167 298.136 10.182 297.807 10.182 291.084C10.182 259.606 3.35464 228.841 3.35464 197.245C3.35464 163.545 0.741354 130.118 3.4305 96.5035C4.2725 85.9785 7.45107 76.2728 7.45107 65.5527C7.45107 56.959 7.88924 47.908 8.8924 39.3811C9.60216 33.3481 10.9889 21.6333 14.2785 16.699" stroke="black" stroke-width="3" stroke-linecap="round"/>
</svg>
