<svg width="269" height="282" viewBox="0 0 269 282" fill="none" xmlns="http://www.w3.org/2000/svg">
<path d="M20.6825 9.49493C62.3074 9.49493 103.772 3.76633 145.459 3.53213C174.83 3.36713 204.205 3.53213 233.576 3.53213C239.572 3.53213 258.752 -0.898604 259.194 7.50733C259.464 12.6331 262.268 17.488 262.728 22.7456C264.84 46.9233 264.818 71.584 266.261 95.8451C269.133 144.117 265.157 192.505 265.157 240.498C265.157 251.032 261.712 259.676 257.648 269.429C255.876 273.684 256.531 277.633 251.465 277.821C241.424 278.193 231.485 279.698 221.43 279.808C150.086 280.592 79.0064 274.426 7.65264 273.846C-2.22047 273.765 3.47598 267.114 5.22335 259.049C8.61711 243.385 10.6537 228.511 10.7445 212.451C10.9352 178.69 8.75686 145.07 8.75686 111.304C8.75686 85.6937 -0.233917 51.4923 11.1861 27.3833C13.7127 22.0494 14.4397 5.65973 18.6949 3.53213" stroke="black" stroke-width="3" stroke-linecap="round"/>
</svg>
