<svg width="264" height="296" viewBox="0 0 264 296" fill="none" xmlns="http://www.w3.org/2000/svg">
<path d="M17.8125 12.7751C22.32 11.9556 26.5312 9.55014 31.1638 8.67867C41.0228 6.824 50.9321 6.45256 60.9009 5.64428C73.0456 4.65957 85.1315 3.36904 97.3136 3.21676C120.591 2.9258 144.107 0.724422 167.56 1.92715C179.182 2.52315 191.314 4.25114 202.835 6.02358C213.363 7.6433 225.351 8.60301 235.379 12.1682C239.448 13.6153 239.722 14.8872 241.751 18.8439C248.187 31.3943 255.331 42.745 259.426 56.3945C264.464 73.1874 260.867 94.169 260.867 111.469C260.867 138.02 260.867 164.571 260.867 191.122C260.867 209.812 261.56 228.647 260.867 247.334C260.491 257.486 245.015 265.691 236.82 268.119C230.059 270.123 223.091 274.769 216.489 276.236C208.066 278.108 199.643 279.013 191.228 281.471C156.184 291.708 117.988 294.063 81.383 294.063C64.0562 294.063 47.3119 290.241 30.1018 288.602C20.4408 287.681 12.0519 278.737 7.49553 270.926C0.471394 258.885 2.79222 240.199 2.79222 226.396C2.79222 213.07 2.79222 199.744 2.79222 186.418C2.79222 175.052 5.48108 164.402 6.66108 153.192C7.53907 144.851 6.88865 136.157 6.88865 127.779C6.88865 107.411 6.20254 85.3898 10.2265 65.2701C12.0503 56.1513 15.0815 48.2067 15.0815 38.795C15.0815 33.8999 16.2015 29.6574 16.5229 24.8368C16.8699 19.631 17.6184 8.96977 20.5434 4.58224" stroke="black" stroke-width="3" stroke-linecap="round"/>
</svg>
