<svg width="287" height="297" viewBox="0 0 287 297" fill="none" xmlns="http://www.w3.org/2000/svg">
<path d="M15.5392 2C61.1763 2 107.214 5.43768 152.82 7.86354C179.342 9.27425 207.839 7.8544 234.072 12.0518C240.684 13.1097 247.24 14.4619 253.803 15.7747C262.101 17.4342 262.554 16.9998 265.158 24.5234C273.92 49.8352 281.337 77.7804 281.911 104.751C282.487 131.803 285.262 158.751 285.262 185.445C285.262 194.101 285.262 202.756 285.262 211.412C285.262 220.419 280.917 231.151 280.143 240.823C279.513 248.698 277.234 257.891 273.907 265.021C271.246 270.723 266.383 291.536 258.829 291.826C240.28 292.54 221.546 291.826 202.986 291.826C188.033 291.826 173.079 291.826 158.125 291.826C144.447 291.826 131.261 295.177 117.639 295.177C95.7011 295.177 75.6502 286.246 54.071 285.218C45.4862 284.809 37.6005 282.346 29.3138 281.774C25.7814 281.531 23.3389 278.587 20.5651 278.424C4.14149 277.458 5.5615 245.575 5.4874 235.425C5.27942 206.932 3.55421 178.807 2.5091 150.357C1.52397 123.539 3.35492 97.0601 3.81211 70.3148C4.05263 56.244 4.0125 39.4581 7.90727 25.8264C9.55787 20.0494 12.1886 16.5385 12.1886 10.3765" stroke="black" stroke-width="3" stroke-linecap="round"/>
</svg>
